<?xml version="1.0" encoding="UTF-8"?>
<svg version="1.1" xmlns="http://www.w3.org/2000/svg" width="662" height="597">
<path d="M0 0 C218.46 0 436.92 0 662 0 C662 197.01 662 394.02 662 597 C443.54 597 225.08 597 0 597 C0 399.99 0 202.98 0 0 Z " fill="#2DA126" transform="translate(0,0)"/>
<path d="M0 0 C1.07473068 0.00373123 1.07473068 0.00373123 2.1711731 0.00753784 C31.24150117 0.16222923 61.83743106 5.2354718 89.484375 14.45751953 C92.15794566 15.34415253 94.83974858 16.20345189 97.52270508 17.06118774 C123.54604038 25.40041304 148.29551239 35.75834856 173.0625 47.3125 C170.99224785 54.39114583 168.7359932 61.38984564 166.359375 68.37109375 C166.00446991 69.41771179 165.64956482 70.46432983 165.28390503 71.54266357 C164.12893007 74.94584738 162.97098346 78.34800905 161.8125 81.75 C161.4166571 82.91391266 161.02081421 84.07782532 160.61297607 85.27700806 C155.02509689 101.70340481 149.39190317 118.11369795 143.6875 134.5 C143.37744019 135.39274628 143.06738037 136.28549255 142.7479248 137.20529175 C136.57528045 154.96330205 136.57528045 154.96330205 133.0625 163.3125 C126.74792525 158.9153106 121.41826773 153.88157007 116.0625 148.375 C111.14213402 143.34128088 106.20089987 138.44260874 100.85791016 133.85620117 C98.4356121 131.77349916 96.09636062 129.60505553 93.75 127.4375 C88.34722268 122.5164518 82.75665141 117.89015113 77.0625 113.3125 C75.93016666 112.37729758 74.79869673 111.44104903 73.66796875 110.50390625 C62.1887517 101.06192464 50.05107179 92.55875584 37.0625 85.3125 C37.09730469 86.34503906 37.13210938 87.37757813 37.16796875 88.44140625 C37.74875427 113.68504364 33.47092834 138.13885882 21.0625 160.3125 C18.03764219 159.7243332 15.04863386 159.07179472 12.0625 158.3125 C12.0939209 156.98859253 12.0939209 156.98859253 12.12597656 155.63793945 C12.19434095 152.34844431 12.24438949 149.05970906 12.28222656 145.76977539 C12.30228421 144.34875543 12.32953778 142.92781741 12.36425781 141.50708008 C12.41304011 139.45894105 12.43552539 137.41189725 12.453125 135.36328125 C12.4845459 133.51730347 12.4845459 133.51730347 12.51660156 131.6340332 C11.98023043 127.7107379 10.69704357 126.18842679 8.0625 123.3125 C7.815 122.52875 7.5675 121.745 7.3125 120.9375 C5.6151843 117.37313703 3.01819259 115.55737805 -0.0625 113.15625 C-2.88793332 110.37790724 -3.83910903 107.58250033 -4.14379883 103.6496582 C-4.12341553 102.70952881 -4.10303223 101.76939941 -4.08203125 100.80078125 C-4.06221191 99.74713379 -4.04239258 98.69348633 -4.02197266 97.60791016 C-3.99409668 96.5204248 -3.9662207 95.43293945 -3.9375 94.3125 C-3.93153809 93.26755371 -3.92557617 92.22260742 -3.91943359 91.14599609 C-3.75318161 75.0592558 -1.87355226 65.19103521 9.0625 53.3125 C11.57419843 49.74988172 12.11533018 48.95702819 11.75 44.5 C11.4096875 42.9221875 11.4096875 42.9221875 11.0625 41.3125 C12.11380638 42.13363871 13.15286153 42.97045657 14.1875 43.8125 C14.76757812 44.2765625 15.34765625 44.740625 15.9453125 45.21875 C17.90324135 47.15500436 19.1902942 48.97710275 20.71484375 51.25 C24.19836913 55.9832401 28.13267374 57.70803738 33.5 59.8125 C35.29458122 60.57041202 37.08754165 61.33217257 38.87890625 62.09765625 C39.75949707 62.46906738 40.64008789 62.84047852 41.54736328 63.22314453 C53.00738129 68.18670504 63.13580231 74.79832349 73.0625 82.3125 C73.62211426 82.73321777 74.18172852 83.15393555 74.75830078 83.58740234 C85.09718989 91.37681198 95.14597056 99.47316989 104.72265625 108.1875 C108.12637561 111.27869087 111.59467849 114.29369921 115.0625 117.3125 C116.56281934 118.62463495 118.06282601 119.93712751 119.5625 121.25 C120.72914799 122.27085468 121.89581143 123.2916917 123.0625 124.3125 C126.45670068 116.42319118 129.48350735 108.48995854 132.19921875 100.34375 C132.56473343 99.26041382 132.93024811 98.17707764 133.30683899 97.06091309 C134.45858876 93.64611578 135.60479811 90.22949826 136.75 86.8125 C137.90640561 83.36710921 139.06408325 79.9221673 140.22529602 76.47839355 C140.94386233 74.34696979 141.65962753 72.2145991 142.37223816 70.08117676 C142.69630142 69.11917358 143.02036469 68.15717041 143.35424805 67.16601562 C143.63672897 66.3228479 143.9192099 65.47968018 144.21025085 64.61096191 C145.0238475 62.41674334 145.97316976 60.38163012 147.0625 58.3125 C145.82242187 57.91289063 144.58234375 57.51328125 143.3046875 57.1015625 C138.60640631 55.53546877 134.00702808 53.76275986 129.39916992 51.95019531 C101.70227911 41.06092741 73.42808655 31.45235476 44.0625 26.3125 C43.30227539 26.17215332 42.54205078 26.03180664 41.75878906 25.88720703 C23.06989256 22.49249733 3.99960654 22.12871669 -14.9375 21.3125 C-14.9375 21.9725 -14.9375 22.6325 -14.9375 23.3125 C-14.21046875 23.58707031 -13.4834375 23.86164063 -12.734375 24.14453125 C-5.42808152 27.19562308 6.40734752 33.00219503 10.0625 40.3125 C9.32 40.8075 9.32 40.8075 8.5625 41.3125 C6.63667292 43.40203164 6.63667292 43.40203164 7.5 47.0625 C7.60546875 49.17578125 7.60546875 49.17578125 7.0625 51.3125 C3.14009876 55.17580668 -1.46231398 58.30189323 -6.9375 59.3125 C-6.4070633 56.39509815 -5.73747627 53.70131638 -4.8125 50.875 C-3.89912597 47.15626288 -3.91602119 44.97279907 -4.9375 41.3125 C-6.74349761 39.09197138 -6.74349761 39.09197138 -9.25 39.046875 C-10.5803125 39.05460937 -10.5803125 39.05460937 -11.9375 39.0625 C-12.824375 39.05734375 -13.71125 39.0521875 -14.625 39.046875 C-17.13150239 39.09197138 -17.13150239 39.09197138 -18.9375 41.3125 C-19.02253327 44.50309632 -18.93118026 47.62957489 -18.77148438 50.81445312 C-18.62826439 55.85678436 -18.62826439 55.85678436 -20.19921875 58.171875 C-22.62187366 59.76157215 -25.13755846 60.84311265 -27.8046875 61.95703125 C-33.08622391 65.31361208 -36.07903819 70.95057411 -39 76.3125 C-45.95676195 88.93110187 -45.95676195 88.93110187 -49.1875 90.1875 C-49.765 90.22875 -50.3425 90.27 -50.9375 90.3125 C-50.9375 92.2925 -50.9375 94.2725 -50.9375 96.3125 C-48.28004814 96.23433965 -46.50478355 95.87650446 -44.5859375 93.96875 C-43.61337486 92.77342161 -42.64771495 91.5724573 -41.6875 90.3671875 C-38.50698451 86.63292154 -34.82250553 83.30395426 -30.9375 80.3125 C-30.2775 80.3125 -29.6175 80.3125 -28.9375 80.3125 C-30.1016876 95.53884829 -30.1016876 95.53884829 -33.66796875 98.984375 C-36.81471991 102.21236759 -39.03986527 105.88525636 -41.4375 109.6875 C-42.38507261 111.17469844 -43.33298336 112.66168149 -44.28125 114.1484375 C-44.72984375 114.85452148 -45.1784375 115.56060547 -45.640625 116.28808594 C-47.37016181 118.98788248 -49.14733871 121.65259053 -50.9375 124.3125 C-54.8125 123.4375 -54.8125 123.4375 -55.9375 122.3125 C-57.28497084 122.08174918 -58.64127565 121.90096937 -60 121.75 C-61.299375 121.605625 -62.59875 121.46125 -63.9375 121.3125 C-63.9375 119.3325 -63.9375 117.3525 -63.9375 115.3125 C-66.2390411 114.53447813 -66.2390411 114.53447813 -68.9375 114.3125 C-69.535625 114.76625 -70.13375 115.22 -70.75 115.6875 C-73.99647563 118.09916761 -76.93995224 117.97937102 -80.9375 118.3125 C-80.67895534 104.58612919 -77.31216775 92.18266264 -69.9765625 80.546875 C-68.75556382 78.40864824 -68.75556382 78.40864824 -69.12109375 76.25 C-73.22201384 66.51767289 -83.46634645 58.47980756 -92.9375 54.3125 C-98.50893426 56.26079296 -102.72949443 61.36564005 -106.9375 65.3125 C-107.82050781 66.11816406 -108.70351563 66.92382812 -109.61328125 67.75390625 C-126.40747783 83.67315192 -138.3503073 104.87263366 -143.9375 127.3125 C-144.29070312 128.55902344 -144.64390625 129.80554688 -145.0078125 131.08984375 C-148.43563983 144.95026026 -146.16042222 159.05558434 -139.25 171.375 C-133.39081527 180.50375448 -126.16024907 188.3131717 -118.625 196.0625 C-117.93100098 196.79098145 -117.23700195 197.51946289 -116.52197266 198.27001953 C-115.85858887 198.93888184 -115.19520508 199.60774414 -114.51171875 200.296875 C-113.91963623 200.90241211 -113.32755371 201.50794922 -112.7175293 202.13183594 C-110.99544458 203.54715895 -110.99544458 203.54715895 -108.81884766 203.08300781 C-95.60652214 197.67188669 -84.51697488 174.83248447 -78.25 162.6875 C-77.89881104 162.02484131 -77.54762207 161.36218262 -77.18579102 160.67944336 C-75.77487739 157.84125663 -74.90796516 155.78102989 -75.109375 152.5859375 C-75.88977217 150.4435264 -76.75267358 148.54457081 -77.875 146.5625 C-81.24241616 140.06032552 -82.24641623 133.57203131 -81.9375 126.3125 C-78.23881555 125.55595091 -75.53861016 125.11212995 -71.9375 126.3125 C-71.34453125 126.41949219 -70.7515625 126.52648437 -70.140625 126.63671875 C-67.26943325 127.51742118 -65.24796437 129.00155469 -62.8125 130.75 C-61.50925781 131.67619141 -61.50925781 131.67619141 -60.1796875 132.62109375 C-57.9375 134.3125 -57.9375 134.3125 -55.9375 136.3125 C-51.68722805 136.97202496 -49.3279802 137.24353832 -45.703125 134.81640625 C-43.69204485 133.05120634 -41.79399599 131.23872354 -39.9375 129.3125 C-39.2775 128.6525 -38.6175 127.9925 -37.9375 127.3125 C-36.90625 127.415625 -35.875 127.51875 -34.8125 127.625 C-29.80279441 127.22099148 -28.2075292 125.27283601 -24.83203125 121.74609375 C-22.9375 120.3125 -22.9375 120.3125 -21.04296875 120.31640625 C-17.02860497 122.21559505 -13.92317394 125.39087097 -10.59375 128.28125 C-8.1548967 130.14625546 -6.90337583 130.91239255 -3.9375 131.3125 C-1.25 131.75 -1.25 131.75 1.0625 132.3125 C1.3925 132.9725 1.7225 133.6325 2.0625 134.3125 C1.7325 134.9725 1.4025 135.6325 1.0625 136.3125 C0.76351319 141.76206868 0.76351319 141.76206868 2.03515625 146.9921875 C3.35188338 151.24776949 3.51795551 155.25815028 3.6875 159.6875 C3.72617187 160.51894531 3.76484375 161.35039062 3.8046875 162.20703125 C3.89824246 164.24185156 3.98142713 166.27714416 4.0625 168.3125 C7.3625 168.6425 10.6625 168.9725 14.0625 169.3125 C12.71320536 173.14913072 10.98498975 175.96422569 8.4375 179.125 C7.80585938 179.91519531 7.17421875 180.70539063 6.5234375 181.51953125 C6.04132813 182.11121094 5.55921875 182.70289063 5.0625 183.3125 C7.58931834 186.17349653 10.41214903 187.76157185 13.75 189.578125 C14.31570709 189.88800354 14.88141418 190.19788208 15.46426392 190.51715088 C16.6872762 191.18631459 17.91157951 191.853123 19.13702393 192.51782227 C21.09327921 193.57919943 23.04585148 194.64708177 24.99755859 195.71679688 C27.69871967 197.19677694 30.40102991 198.67461828 33.10449219 200.15039062 C112.44879761 243.47639894 112.44879761 243.47639894 139.6875 269.09375 C141.75654941 271.02667774 143.8771809 272.82739881 146.0625 274.625 C162.02447409 288.59987119 176.89036075 309.94462288 178.90234375 331.41796875 C180.67545997 363.46380099 173.69505007 401.45204055 152.33984375 426.640625 C150.68736476 428.46102895 149.00782724 430.25767019 147.2890625 432.015625 C145.01011499 434.29295091 145.01011499 434.29295091 142.9921875 436.90625 C126.75479351 457.15368866 99.1684842 468.28473658 75.0625 475.3125 C73.62970703 475.74369141 73.62970703 475.74369141 72.16796875 476.18359375 C50.90043114 482.33746895 28.12910536 484.55591131 6.0625 484.625 C5.03205566 484.63039795 4.00161133 484.6357959 2.93994141 484.64135742 C-4.18630753 484.57471906 -10.94124233 483.60866612 -17.9375 482.3125 C-19.62445724 482.05886338 -21.31188478 481.80831143 -23 481.5625 C-56.48939616 475.28623262 -87.65166894 457.39060528 -113.9375 436.3125 C-114.91460937 435.54164063 -115.89171875 434.77078125 -116.8984375 433.9765625 C-124.23406928 427.99868262 -130.97581607 421.4801825 -137.6875 414.8125 C-138.56277344 413.9464917 -139.43804687 413.0804834 -140.33984375 412.18823242 C-157.66038624 394.78416613 -171.47508617 374.37036651 -183.9375 353.3125 C-184.45489746 352.45011719 -184.97229492 351.58773438 -185.50537109 350.69921875 C-186.98191067 348.22722236 -188.43304547 345.74229544 -189.875 343.25 C-190.31875977 342.50613037 -190.76251953 341.76226074 -191.21972656 340.99584961 C-192.40234375 338.90234375 -192.40234375 338.90234375 -193.9375 335.3125 C-192.8668913 332.28075578 -191.17120075 330.30632427 -188.8984375 328.078125 C-188.31835938 327.50449219 -187.73828125 326.93085938 -187.140625 326.33984375 C-186.53734375 325.75332031 -185.9340625 325.16679687 -185.3125 324.5625 C-184.70148438 323.96050781 -184.09046875 323.35851562 -183.4609375 322.73828125 C-181.95761376 321.25844695 -180.44815144 319.78485324 -178.9375 318.3125 C-173.96253041 319.8785173 -170.49997602 322.85224713 -166.5 326.0625 C-146.39404192 341.78846061 -123.90545364 354.28807781 -100.9375 365.3125 C-100.08510742 365.72612793 -99.23271484 366.13975586 -98.35449219 366.56591797 C-70.89625812 379.82044824 -41.93030099 390.60980834 -11.61328125 394.76953125 C-7.9375 395.3125 -7.9375 395.3125 -4.9375 396.3125 C13.49702457 397.31716991 31.87822856 394.67551368 46.9765625 383.2890625 C54.97768106 375.70747824 58.42947672 364.62812475 59.1171875 353.87890625 C58.95841837 346.42809772 54.16398316 341.22036251 49.0625 336.3125 C31.74770619 320.80836553 11.31404909 309.11068725 -8.58398438 297.31152344 C-14.4957857 293.78751141 -20.37154612 290.20426412 -26.25 286.625 C-33.39473894 282.27590209 -40.54619297 277.94012612 -47.73803711 273.66918945 C-56.31413369 268.57019698 -64.77519281 263.30180768 -73.1875 257.9375 C-74.23574951 257.27097412 -75.28399902 256.60444824 -76.36401367 255.91772461 C-81.52495744 252.6076767 -86.51373196 249.24416751 -91.26489258 245.36303711 C-93.09360063 244.01371373 -93.09360063 244.01371373 -96.375 244.25 C-98.98068565 245.02713432 -101.5357241 245.84972002 -104.10546875 246.73046875 C-120.9259108 252.34751729 -138.50882528 255.28619347 -155.9375 258.3125 C-156.79698242 258.46460938 -157.65646484 258.61671875 -158.54199219 258.7734375 C-168.81662334 260.57884306 -179.13162194 261.85671109 -189.5 263 C-191.26718384 263.19746826 -191.26718384 263.19746826 -193.07006836 263.39892578 C-194.20323486 263.51864746 -195.33640137 263.63836914 -196.50390625 263.76171875 C-197.50365479 263.86830811 -198.50340332 263.97489746 -199.53344727 264.0847168 C-204.00529127 264.38395157 -208.45756875 264.35672876 -212.9375 264.3125 C-212.93259048 265.11676926 -212.92768097 265.92103851 -212.92262268 266.74967957 C-212.81320694 287.74614468 -213.13756119 308.70408026 -213.7354126 329.69137573 C-213.97883896 338.24962254 -214.20408618 346.80835344 -214.42578125 355.3671875 C-214.44829704 356.2341947 -214.47081284 357.1012019 -214.49401093 357.99448204 C-215.23549485 386.76346079 -215.56619426 415.53630534 -215.9375 444.3125 C-240.0275 444.3125 -264.1175 444.3125 -288.9375 444.3125 C-289.35 435.65 -289.7625 426.9875 -290.1875 418.0625 C-290.3309082 415.05527832 -290.47431641 412.04805664 -290.62207031 408.94970703 C-291.30877615 394.54911956 -291.99315493 380.14842875 -292.67132568 365.74743652 C-292.96696371 359.47023826 -293.26369399 353.19309172 -293.56062698 346.91595459 C-293.7653942 342.58573119 -293.96965526 338.2554855 -294.17248535 333.9251709 C-295.07471974 314.67062716 -296.03122906 295.41999565 -297.06171036 276.171875 C-298.59121961 247.56939564 -299.99589586 218.96126948 -301.3828125 190.3515625 C-301.43688106 189.23638197 -301.49094961 188.12120145 -301.54665661 186.97222757 C-302.21623393 173.15906505 -302.88393385 159.34581206 -303.55086112 145.53252137 C-304.45744724 126.75586249 -305.36608017 107.97930259 -306.27509296 89.20276105 C-306.59224756 82.65069209 -306.90890873 76.09859952 -307.2251246 69.54648519 C-307.4215971 65.47681877 -307.61839388 61.40716808 -307.81525803 57.3375206 C-307.90528813 55.47489355 -307.9951811 53.61225987 -308.08491516 51.74961853 C-308.20882856 49.17783794 -308.33323566 46.6060817 -308.45779419 44.03433228 C-308.49683184 43.22345067 -308.53586949 42.41256907 -308.5760901 41.5771153 C-308.77627752 37.45932795 -308.98886131 33.3426401 -309.22082138 29.22651291 C-309.26731728 28.38968078 -309.31381319 27.55284865 -309.36171806 26.69065797 C-309.44915615 25.12959249 -309.5390032 23.56865874 -309.63204205 22.00791705 C-309.96280329 16.08030878 -309.9375 10.27984521 -309.9375 4.3125 C-275.9475 4.3125 -241.9575 4.3125 -206.9375 4.3125 C-207.2675 9.9225 -207.5975 15.5325 -207.9375 21.3125 C-206.596875 20.9 -205.25625 20.4875 -203.875 20.0625 C-197.59683749 18.18434183 -191.28033303 16.46377127 -184.93505859 14.82861328 C-183.00293807 14.32940737 -181.07367284 13.81919044 -179.14453125 13.30859375 C-165.92168743 9.92334689 -152.45100791 8.11791466 -138.9375 6.3125 C-138.08381836 6.19100586 -137.23013672 6.06951172 -136.35058594 5.94433594 C-113.59853517 2.74587307 -88.8449023 2.45115179 -66.2421875 6.65625 C-57.64478689 8.13200411 -50.10915426 7.19364778 -41.75 4.9375 C-27.93438401 1.25047758 -14.28430903 -0.08033967 0 0 Z " fill="#FDFEFD" transform="translate(383.9375,57.6875)"/>
<path d="M0 0 C2.03515625 0.96118164 2.03515625 0.96118164 4.0625 2.16015625 C4.84415527 2.61575928 5.62581055 3.0713623 6.43115234 3.54077148 C7.27887207 4.04294189 8.1265918 4.5451123 9 5.0625 C10.88678887 6.16097297 12.77488418 7.25720406 14.6640625 8.3515625 C16.19015137 9.23569824 16.19015137 9.23569824 17.74707031 10.13769531 C22.96931248 13.12743287 28.24285548 16.02287776 33.51785278 18.9180603 C107.98277265 59.79392339 107.98277265 59.79392339 132.84765625 83.00390625 C134.82258377 84.83546335 136.85856947 86.53916985 138.9375 88.25 C151.91912846 99.65809774 164.54669727 116.50043882 166.20263672 134.16113281 C166.86944385 145.41379971 165.59699923 156.06244122 163 167 C162.83371094 167.74749512 162.66742187 168.49499023 162.49609375 169.26513672 C158.7843991 185.84747624 152.89990062 200.76593598 142 214 C141.06220703 215.16402344 141.06220703 215.16402344 140.10546875 216.3515625 C135.03321655 222.36388588 129.23181321 227.2272573 123 232 C122.22011719 232.60714844 121.44023437 233.21429688 120.63671875 233.83984375 C85.76367443 259.68692366 34.504431 264.94620432 -7.57324219 260.63378906 C-13.59407984 259.68520639 -19.26443578 258.03142115 -25 256 C-26.25804443 255.58186035 -26.25804443 255.58186035 -27.54150391 255.15527344 C-45.77656885 249.05100517 -63.477777 240.40038917 -79 229 C-79.64388672 228.52836426 -80.28777344 228.05672852 -80.95117188 227.57080078 C-89.54017772 221.24340874 -97.7481035 214.68930167 -105.484375 207.33984375 C-107.96173666 204.97443639 -107.96173666 204.97443639 -110.6328125 202.91015625 C-112.73966442 201.21007277 -114.39389791 199.56644647 -116.125 197.5 C-118.16601286 195.09906659 -120.22709904 192.76182296 -122.40234375 190.48046875 C-130.82510251 181.63719046 -137.90547369 171.92516277 -145 162 C-144.505 161.01 -144.505 161.01 -144 160 C-143.34 160.42667969 -142.68 160.85335937 -142 161.29296875 C-94.44755769 191.32283141 -23.78448813 225.98359908 34.109375 213.90234375 C51.18027394 209.94312924 67.4057934 202.60445247 77.3671875 187.70703125 C83.16300774 178.09817138 87.29479312 167.26256872 88 156 C88.06445312 155.14535156 88.12890625 154.29070312 88.1953125 153.41015625 C88.69813043 141.45985013 83.52197265 132.98279868 76 124 C71.59736235 119.24701984 66.90063859 115.14705011 61.6875 111.3125 C60.99366211 110.79905029 60.29982422 110.28560059 59.58496094 109.7565918 C39.76455897 95.2238474 18.51007797 82.89066628 -2.55249023 70.27758789 C-3.56641846 69.67035889 -4.58034668 69.06312988 -5.625 68.4375 C-6.63570557 67.83220459 -7.64641113 67.22690918 -8.68774414 66.60327148 C-23.93998777 57.45435111 -39.12174152 48.17780559 -54.125 38.625 C-54.83591797 38.17866211 -55.54683594 37.73232422 -56.27929688 37.27246094 C-57.88924536 36.23608737 -59.45134166 35.12590481 -61 34 C-61 33.34 -61 32.68 -61 32 C-60.37657715 31.70867187 -59.7531543 31.41734375 -59.11083984 31.1171875 C-41.99644298 23.09451832 -25.43060423 15.1956497 -10.71875 3.12890625 C-10.0278125 2.57074219 -9.336875 2.01257813 -8.625 1.4375 C-8.03976562 0.94121094 -7.45453125 0.44492187 -6.8515625 -0.06640625 C-4.24019682 -1.38310751 -2.79025217 -0.73332558 0 0 Z " fill="#2EA127" transform="translate(376,259)"/>
<path d="M0 0 C0.77939941 0.03077637 1.55879883 0.06155273 2.36181641 0.09326172 C6.43051496 0.31043921 9.76071286 0.83393141 13.4375 2.625 C10.36922169 6.30693397 7.30541556 9.78149773 3.8125 13.0625 C-12.74968044 29.5298588 -23.32373836 50.67843035 -30.5625 72.625 C-30.80258789 73.34478027 -31.04267578 74.06456055 -31.29003906 74.80615234 C-37.26410391 93.48957275 -36.95141251 113.85910444 -28.5625 131.625 C-28.11777344 132.61113281 -27.67304688 133.59726563 -27.21484375 134.61328125 C-19.59571643 149.96260189 -6.71621711 161.88875247 5.4375 173.625 C4.24726677 177.19569968 3.41766876 177.5667397 0.30859375 179.515625 C-0.98485962 180.32773437 -0.98485962 180.32773437 -2.30444336 181.15625 C-3.23522705 181.7234375 -4.16601074 182.290625 -5.125 182.875 C-6.07576416 183.45765625 -7.02652832 184.0403125 -8.00610352 184.640625 C-15.94253266 189.41674154 -23.93019907 193.30133333 -32.5625 196.625 C-33.61308594 197.0478125 -34.66367188 197.470625 -35.74609375 197.90625 C-43.67649778 200.93475191 -51.81389903 203.1515866 -60 205.375 C-61.12647949 205.68115234 -62.25295898 205.98730469 -63.41357422 206.30273438 C-64.49268066 206.58955078 -65.57178711 206.87636719 -66.68359375 207.171875 C-67.6470874 207.42807617 -68.61058105 207.68427734 -69.60327148 207.94824219 C-72.90623199 208.70360944 -76.20736702 209.16176293 -79.5625 209.625 C-79.81922401 166.90698859 -79.16093667 124.23684313 -78.22635365 81.5309031 C-78.03997818 73.00274095 -77.8609192 64.4744289 -77.68222713 55.94610286 C-77.31664819 38.50556747 -76.94266515 21.06522345 -76.5625 3.625 C-72.94999354 3.13344638 -69.33643718 2.65005592 -65.72265625 2.16796875 C-64.71416626 2.03064331 -63.70567627 1.89331787 -62.66662598 1.75183105 C-41.95397446 -0.99572316 -20.84640807 -0.93668941 0 0 Z " fill="#2EA127" transform="translate(251.5625,101.375)"/>
<path d="M0 0 C3.46693183 0.53430823 5.05976127 1.61285995 7.23046875 4.34375 C7.79296875 7.84375 7.79296875 7.84375 7.23046875 11.34375 C4.42709734 14.89468712 2.39663213 16.18972842 -2.08203125 16.78125 C-5.76953125 16.34375 -5.76953125 16.34375 -8.76953125 13.78125 C-10.76953125 10.34375 -10.76953125 10.34375 -10.76953125 6.65625 C-8.88842967 0.425101 -6.10679004 -0.23909129 0 0 Z " fill="#35A42E" transform="translate(361.76953125,212.65625)"/>
</svg>
